<svg xmlns:dc="http://purl.org/dc/elements/1.1/" xmlns:cc="http://creativecommons.org/ns#" xmlns:rdf="http://www.w3.org/1999/02/22-rdf-syntax-ns#" xmlns:svg="http://www.w3.org/2000/svg" xmlns="http://www.w3.org/2000/svg" id="svg856" viewBox="0 0 90 89.999999" height="90mm" width="90mm"><defs id="defs850"/><g id="text4522" style="font-style:normal;font-variant:normal;font-weight:400;font-stretch:condensed;font-size:78.66123962px;line-height:100%;font-family:myriad pro;-inkscape-font-specification:'Myriad Pro Condensed';text-align:center;letter-spacing:0;word-spacing:-.14748976px;text-anchor:middle;fill:#000;fill-opacity:1;stroke:none;stroke-width:.26458332px;stroke-linecap:butt;stroke-linejoin:miter;stroke-opacity:1" transform="scale(0.66752314,1.4980754)" aria-label="LOGO"><path id="path4524" style="stroke-width:.26458332px" d="M7.3270879 56.677731H28.250978V51.56475H13.384003V3.6600551H7.3270879z"/><path id="path4526" style="stroke-width:.26458332px" d="m43.668435 57.30702c8.495414.0 15.26028-7.708801 15.26028-27.531433.0-16.912167-5.427625-26.7448219-14.473668-26.7448219-9.203365.0-15.574925 9.5180099-15.574925 27.0594669.0 17.856101 5.899593 27.216788 14.709651 27.216788zm.314645-5.348964c-6.843528.0-8.88872-11.563202-8.810059-21.867824.0-10.068639 1.966531-21.7105026 8.810059-21.7105026 6.843527.0 8.652736 11.7205246 8.652736 21.6318406.0 10.383284-1.809209 21.946486-8.574075 21.946486z"/><path id="path4528" style="stroke-width:.26458332px" d="M92.202352 28.988974H79.695215v5.03432h6.843528v17.305472c-.471967.314645-1.651886.62929-3.697078.62929-6.371561.0-12.585799-5.270303-12.585799-21.631841.0-16.440199 7.158173-21.7105018 13.765717-21.7105018 2.831805.0 4.641014.5506286 6.056916 1.2585798L91.41574 4.6826512C89.842515 3.8173775 87.246694 3.1880876 83.942922 3.1880876c-9.360687.0-19.901293 7.0008504-19.979955 27.6887564-.07866 9.753994 2.51716 17.069489 6.371561 21.159873 3.539756 3.854401 7.866124 5.112981 12.507137 5.112981 3.303772.0 7.158173-.865274 9.360687-1.809209z"/><path id="path4530" style="stroke-width:.26458332px" d="m113.04749 57.30702c8.49542.0 15.26028-7.708801 15.26028-27.531433.0-16.912167-5.42762-26.7448219-14.47367-26.7448219-9.20336.0-15.574921 9.5180099-15.574921 27.0594669.0 17.856101 5.899591 27.216788 14.709651 27.216788zm.31465-5.348964c-6.84353.0-8.88872-11.563202-8.81006-21.867824.0-10.068639 1.96653-21.7105026 8.81006-21.7105026 6.84352.0 8.65273 11.7205246 8.65273 21.6318406.0 10.383284-1.80921 21.946486-8.57407 21.946486z"/></g></svg>