<?xml version="1.0" ?><!DOCTYPE svg  PUBLIC '-//W3C//DTD SVG 1.1//EN'  'http://www.w3.org/Graphics/SVG/1.1/DTD/svg11.dtd'><svg enable-background="new 0 0 30 30" height="30px" id="Layer_1" version="1.1" viewBox="0 0 30 30" width="30px" xml:space="preserve" xmlns="http://www.w3.org/2000/svg" xmlns:xlink="http://www.w3.org/1999/xlink"><polyline clip-rule="evenodd" fill="#EA4C3A" fill-rule="evenodd" points="30.018,28.667 0,28.667 0,0 30.018,0 30.018,28.667 "/><path d="M15.372,4.377  c0.452,0.213,0.358,0.489,0.219,1.793c-0.142,1.345-0.618,3.802-1.535,6.219c-0.918,2.413-2.28,4.784-3.467,6.539  c-1.186,1.756-2.201,2.897-2.975,3.556c-0.777,0.659-1.314,0.835-1.665,0.893c-0.348,0.058-0.506,0-0.6-0.177  c-0.094-0.176-0.127-0.466-0.046-0.82c0.079-0.35,0.268-0.76,0.804-1.285c0.541-0.527,1.426-1.172,2.661-1.771  c1.235-0.6,2.817-1.156,4.116-1.537c1.299-0.379,2.311-0.585,3.197-0.746c0.888-0.162,1.647-0.277,2.391-0.337  c0.744-0.056,1.474-0.056,2.186,0c0.712,0.06,1.408,0.175,2.011,0.323c0.6,0.146,1.108,0.321,1.551,0.601  c0.442,0.276,0.823,0.657,1.012,1.083c0.192,0.423,0.192,0.893,0.033,1.228c-0.158,0.337-0.476,0.541-0.839,0.66  c-0.364,0.115-0.775,0.144-1.267,0c-0.49-0.148-1.062-0.47-1.662-0.894c-0.601-0.425-1.235-0.952-2.057-1.771  c-0.824-0.819-1.838-1.93-2.692-3.013c-0.854-1.083-1.553-2.136-2.028-3.029c-0.473-0.893-0.727-1.624-0.933-2.355  c-0.206-0.733-0.364-1.464-0.427-2.122S13.326,6.17,13.39,5.701c0.063-0.466,0.16-0.82,0.317-1.055  c0.158-0.23,0.381-0.35,0.539-0.408s0.254-0.058,0.348-0.073c0.094-0.015,0.188-0.044,0.333,0c0.138,0.042,0.321,0.154,0.504,0.268" fill="none" stroke="#FFFFFF" stroke-linejoin="round" stroke-miterlimit="10" stroke-width="1.4"/></svg>