<svg height="512" viewBox="0 0 64 64" width="512" xmlns="http://www.w3.org/2000/svg" xmlns:xlink="http://www.w3.org/1999/xlink"><linearGradient id="linear-gradient" gradientUnits="userSpaceOnUse" x1="34.5" x2="34.5" y1="-31.987" y2="-29.421"><stop offset="0" stop-color="#f3f7ff"/><stop offset=".99" stop-color="#b5d1ff"/></linearGradient><linearGradient id="linear-gradient-2" gradientUnits="userSpaceOnUse" x1="10.396" x2="10.396" y1="30.449" y2="119.699"><stop offset="0" stop-color="#ff5252"/><stop offset="1" stop-color="#d50000"/></linearGradient><linearGradient id="linear-gradient-3" x1="33.5" x2="33.5" xlink:href="#linear-gradient" y1="-5.429" y2="153.977"/><linearGradient id="linear-gradient-4" x1="50.538" x2="50.538" xlink:href="#linear-gradient" y1="-23.429" y2="-3.999"/><linearGradient id="linear-gradient-5" x1="27.396" x2="27.396" xlink:href="#linear-gradient-2" y1="32.518" y2="84.952"/><linearGradient id="linear-gradient-6" x1="9" x2="9" xlink:href="#linear-gradient-2" y1="16.321" y2="43.66"/><g id="PDF"><path d="m56 64h-43a1 1 0 0 1 -1-1v-62a1 1 0 0 1 1-1h32.662a1 1 0 0 1 .707.293l10.338 10.338a1 1 0 0 1 .293.707v51.662a1 1 0 0 1 -1 1z" fill="url(#linear-gradient)"/><path d="m7 32.946 4-1.767 2.792 4.285h-6.792z" fill="url(#linear-gradient-2)"/><path d="m55 64h-43a1 1 0 0 1 -1-1v-62a1 1 0 0 1 1-1h33.076l10.924 10.924v52.076a1 1 0 0 1 -1 1z" fill="url(#linear-gradient-3)"/><path d="m45.076 0v9.924a1 1 0 0 0 1 1h9.924l-4.9-5.9z" fill="url(#linear-gradient-4)"/><path d="m46.022 52.5h-37.252a1.769 1.769 0 0 1 -1.77-1.77v-16.016h39.022a1.771 1.771 0 0 1 1.77 1.77v14.246a1.77 1.77 0 0 1 -1.77 1.77z" fill="url(#linear-gradient-5)"/><path d="m11 31.179h-2.232a1.767 1.767 0 0 0 -1.768 1.767 1.767 1.767 0 0 0 1.768 1.768h2.232z" fill="url(#linear-gradient-6)"/><g fill="#fff"><path d="m15 47.035v-6.854a.868.868 0 0 1 .868-.869 28.119 28.119 0 0 1 3.977.129 2.416 2.416 0 0 1 1.735 2.514 2.482 2.482 0 0 1 -1.916 2.584 18.245 18.245 0 0 1 -2.651.123.279.279 0 0 0 -.279.279v2.094a.867.867 0 0 1 -.867.867.867.867 0 0 1 -.867-.867zm1.734-5.99v1.879a.279.279 0 0 0 .279.279 7.605 7.605 0 0 0 2.041-.135 1.172 1.172 0 0 0 -.234-2.244 16.962 16.962 0 0 0 -1.807-.059.279.279 0 0 0 -.278.28z"/><path d="m23 40.181a.868.868 0 0 1 .868-.869 19.481 19.481 0 0 1 3.936.164 3.241 3.241 0 0 1 2.116 2.183 6.351 6.351 0 0 1 .281 2.03 5.635 5.635 0 0 1 -.264 1.828 3.132 3.132 0 0 1 -2.139 2.2 20.884 20.884 0 0 1 -3.93.182.868.868 0 0 1 -.868-.865zm1.734.864v5.131a.279.279 0 0 0 .279.279 10.917 10.917 0 0 0 2.065-.082 1.483 1.483 0 0 0 1.154-1.187 5.609 5.609 0 0 0 .176-1.573 5.133 5.133 0 0 0 -.176-1.529 1.664 1.664 0 0 0 -1.3-1.237 14.379 14.379 0 0 0 -1.924-.082.279.279 0 0 0 -.275.28z"/><path d="m31.682 47.035v-6.854a.869.869 0 0 1 .869-.869h4.293a.727.727 0 0 1 .727.727.726.726 0 0 1 -.727.726h-3.144a.279.279 0 0 0 -.279.28v1.474a.279.279 0 0 0 .279.28h2.58a.727.727 0 0 1 .727.726.728.728 0 0 1 -.727.727h-2.58a.279.279 0 0 0 -.279.279v2.5a.868.868 0 0 1 -.868.867.867.867 0 0 1 -.871-.863z"/></g></g></svg>