<svg xmlns:dc="http://purl.org/dc/elements/1.1/" xmlns:cc="http://creativecommons.org/ns#" xmlns:rdf="http://www.w3.org/1999/02/22-rdf-syntax-ns#" xmlns:svg="http://www.w3.org/2000/svg" xmlns="http://www.w3.org/2000/svg" id="svg883" width="533.4809pt" viewBox="0 -10 534.51116 512.20276" height="512.20276pt"><defs id="defs887"/><path style="fill:#ffc107;stroke:#ffc107;stroke-width:22.54345131;stroke-miterlimit:4;stroke-dasharray:none;stroke-opacity:1;fill-opacity:1" id="path881" d="M521.91498 186.20902C518.56342 175.84184 509.36811 168.47855 498.4892 167.49809L350.71576 154.08012 292.28217 17.310584C287.97358 7.2871474 278.16108.79886636 267.25873.79886636c-10.90234.0-20.71484 6.48828104-25.02343 16.53515564L183.8017 154.08012 36.004819 167.49809c-10.859376 1.0039-20.031249 8.34375-23.402343 18.71093-3.3710944 10.36719-.257813 21.73828 7.957031 28.90625L132.25873 313.07621 99.321225 458.16605c-2.410156 10.66797 1.730465 21.69532 10.582035 28.09375 4.75782 3.4375 10.32422 5.1875 15.93751 5.1875 4.83984.0 9.64062-1.30468 13.94921-3.88281l127.46875-76.18359 127.42188 76.18359c9.32422 5.60938 21.07812 5.09766 29.91015-1.30469 8.85547-6.41796 12.99219-17.44921 10.58204-28.09375L402.2353 313.07621 513.93451 215.1348c8.21485-7.1875 11.35157-18.53906 7.98047-28.92578zm0 0"/></svg>